<svg version="1.1" viewBox="0.0 0.0 858.1994750656168 478.49343832021" fill="none" stroke="none" stroke-linecap="square" stroke-miterlimit="10" xmlns:xlink="http://www.w3.org/1999/xlink" xmlns="http://www.w3.org/2000/svg"><clipPath id="p.0"><path d="m0 0l858.19946 0l0 478.49344l-858.19946 0l0 -478.49344z" clip-rule="nonzero"/></clipPath><g clip-path="url(#p.0)"><path fill="#000000" fill-opacity="0.0" d="m0 0l858.19946 0l0 478.49344l-858.19946 0z" fill-rule="evenodd"/><path fill="#00ff00" fill-opacity="0.75" d="m3.2392967E-5 52.352757l0 0c0 -28.913568 23.43908 -52.350567 52.35265 -52.348l558.7699 0.049594842c13.884827 0.0012323745 27.200928 5.5181236 37.01892 15.337022c9.818054 9.818897 15.33374 23.135487 15.33374 37.02027l0 209.4043c0 28.913574 -23.439087 52.350555 -52.35266 52.347992l-558.7699 -0.049591064c-28.913568 -0.0025634766 -52.35265 -23.443726 -52.35265 -52.3573z" fill-rule="evenodd"/><path fill="#00ffff" fill-opacity="0.75" d="m87.18556 127.06549l0 0c-0.005012512 -28.918983 23.434402 -52.362457 52.353394 -52.362457l558.7503 0c13.88739 0 27.20691 5.516739 37.028503 15.336609c9.821533 9.819862 15.340576 23.138466 15.343018 37.02585l0.036254883 209.44357c0.005004883 28.918976 -23.434387 52.362457 -52.353394 52.362457l-558.75024 0c-28.918983 0 -52.366524 -23.443481 -52.37153 -52.362457z" fill-rule="evenodd"/><path fill="#f81894" fill-opacity="0.75" d="m190.82362 211.897l0 0c0 -28.913559 23.439072 -52.352646 52.352646 -52.352646l558.7699 0c13.884766 0 27.200867 5.5157166 37.01892 15.33374c9.817993 9.818024 15.33374 23.134125 15.33374 37.018906l0 209.4043c0 28.913574 -23.439087 52.35266 -52.35266 52.35266l-558.7699 0c-28.913574 0 -52.352646 -23.439087 -52.352646 -52.35266z" fill-rule="evenodd"/></g></svg>